<svg xmlns="http://www.w3.org/2000/svg" width="34" height="34" viewBox="0 0 34 34">
  <g id="Account_Information" data-name="Account Information" transform="translate(1203 -5455.5)">
    <circle id="Oval" cx="17" cy="17" r="17" transform="translate(-1203 5455.5)" fill="#ee0cc4"/>
    <g id="_22_Icons_Filled_Discover_Copy_2" data-name="22) Icons/Filled/Discover Copy 2" transform="translate(-1198 5460.5)">
      <path id="Shape" d="M8,16a8,8,0,1,1,8-8A8.009,8.009,0,0,1,8,16Zm.121-4.8A5.6,5.6,0,0,0,4.01,13.005a6.393,6.393,0,0,0,3.978,1.4H8a6.4,6.4,0,0,0,4.134-1.514,5.618,5.618,0,0,0-4-1.687H8.121ZM8,1.6A6.4,6.4,0,0,0,2.893,11.857,7.207,7.207,0,0,1,8.118,9.6h.02a7.125,7.125,0,0,1,5.079,2.107A6.4,6.4,0,0,0,8,1.6ZM8,8.8a3.2,3.2,0,1,1,3.2-3.2A3.2,3.2,0,0,1,8,8.8ZM8,4A1.6,1.6,0,1,0,9.6,5.6,1.6,1.6,0,0,0,8,4Z" transform="translate(4 4)" fill="#fff"/>
    </g>
  </g>
</svg>
