<svg xmlns="http://www.w3.org/2000/svg" width="18.642" height="21.215" viewBox="0 0 18.642 21.215">
  <g id="noun_notification_2184960" transform="translate(0.5 -2.5)">
    <g id="Group_2" data-name="Group 2" transform="translate(0 3)">
      <g id="Group_1" data-name="Group 1" transform="translate(0)">
        <path id="Path_3" data-name="Path 3" d="M33.167,24.914a6.617,6.617,0,0,0-4.962,6.407v4.41a.736.736,0,0,1-.734.736,1.47,1.47,0,1,0,0,2.94H42.168a1.47,1.47,0,1,0,0-2.94.733.733,0,0,1-.734-.736v-4.41a6.618,6.618,0,0,0-4.962-6.407v-.759a1.654,1.654,0,1,0-3.308,0Zm-.919,15.229h5.146a2.573,2.573,0,0,1-5.146,0Z" transform="translate(-26 -22.5)" fill="none" stroke="#444" stroke-width="1" fill-rule="evenodd"/>
      </g>
    </g>
  </g>
</svg>
