<svg xmlns="http://www.w3.org/2000/svg" width="34" height="34" viewBox="0 0 34 34">
  <g id="Invite_Friends" data-name="Invite Friends" transform="translate(1203 -5600.5)">
    <circle id="Oval" cx="17" cy="17" r="17" transform="translate(-1203 5600.5)" fill="#ee0cc4"/>
    <g id="_22_Icons_Filled_Discover_Copy" data-name="22) Icons/Filled/Discover Copy" transform="translate(-1198 5605.5)">
      <path id="Shape" d="M10.4,14.4a.8.8,0,0,1-.8-.8,4,4,0,0,0-8,0,.8.8,0,1,1-1.6,0A5.6,5.6,0,0,1,9.552,9.64,4,4,0,0,1,16,12.8a.8.8,0,1,1-1.6,0,2.4,2.4,0,0,0-3.888-1.88A5.532,5.532,0,0,1,11.2,13.6.8.8,0,0,1,10.4,14.4ZM12,8a2.4,2.4,0,1,1,2.4-2.4A2.4,2.4,0,0,1,12,8Zm0-3.2a.8.8,0,1,0,.8.8A.8.8,0,0,0,12,4.8ZM5.6,6.4A3.2,3.2,0,1,1,8.8,3.2,3.2,3.2,0,0,1,5.6,6.4Zm0-4.8A1.6,1.6,0,1,0,7.2,3.2,1.6,1.6,0,0,0,5.6,1.6Z" transform="translate(4 5)" fill="#fff"/>
    </g>
  </g>
</svg>
