<svg xmlns="http://www.w3.org/2000/svg" xmlns:xlink="http://www.w3.org/1999/xlink" width="34" height="34" viewBox="0 0 34 34">
  <defs>
    <clipPath id="clip-path">
      <path id="Path-103" d="M-7.554,12.123V5.138l1.388,1.452a.774.774,0,0,0,1.131,0,.865.865,0,0,0,0-1.183l-2.4-2.513a.775.775,0,0,0-1.131,0l-.01.01a.8.8,0,0,0-.557.583l-1.833,1.919a.865.865,0,0,0,0,1.183.774.774,0,0,0,1.131,0l.68-.712v6.244a.8.8,0,0,0,.8.8A.8.8,0,0,0-7.554,12.123ZM-12,11.075a.769.769,0,0,0,.8-.759.8.8,0,0,0-.8-.794h-.8a1.6,1.6,0,0,1-1.672-1.517l.031-4.93A1.609,1.609,0,0,1-12.8,1.513h9.6A1.628,1.628,0,0,1-1.537,3.075v4.93A1.611,1.611,0,0,1-3.2,9.546H-4a.772.772,0,0,0-.8.764.773.773,0,0,0,.8.764h.8A3.1,3.1,0,0,0,0,8.005V3.075A3.105,3.105,0,0,0-3.2,0h-9.6A3.186,3.186,0,0,0-16,3.173V8.005a3.1,3.1,0,0,0,3.2,3.069Z" transform="translate(18.462 20.462) rotate(90)" fill="#222b45"/>
    </clipPath>
  </defs>
  <g id="Log_Out" data-name="Log Out" transform="translate(1203 -5955)">
    <circle id="Oval" cx="17" cy="17" r="17" transform="translate(-1203 5955)" fill="#e4e9f2"/>
    <g id="_22_Icons_Filled_Discover_Copy_7" data-name="22) Icons/Filled/Discover Copy 7" transform="translate(-1198 5960)">
      <g id="Group_81" data-name="Group 81">
        <path id="Path-103-2" data-name="Path-103" d="M-7.554,12.123V5.138l1.388,1.452a.774.774,0,0,0,1.131,0,.865.865,0,0,0,0-1.183l-2.4-2.513a.775.775,0,0,0-1.131,0l-.01.01a.8.8,0,0,0-.557.583l-1.833,1.919a.865.865,0,0,0,0,1.183.774.774,0,0,0,1.131,0l.68-.712v6.244a.8.8,0,0,0,.8.8A.8.8,0,0,0-7.554,12.123ZM-12,11.075a.769.769,0,0,0,.8-.759.8.8,0,0,0-.8-.794h-.8a1.6,1.6,0,0,1-1.672-1.517l.031-4.93A1.609,1.609,0,0,1-12.8,1.513h9.6A1.628,1.628,0,0,1-1.537,3.075v4.93A1.611,1.611,0,0,1-3.2,9.546H-4a.772.772,0,0,0-.8.764.773.773,0,0,0,.8.764h.8A3.1,3.1,0,0,0,0,8.005V3.075A3.105,3.105,0,0,0-3.2,0h-9.6A3.186,3.186,0,0,0-16,3.173V8.005a3.1,3.1,0,0,0,3.2,3.069Z" transform="translate(18.462 20.462) rotate(90)" fill="#222b45"/>
      </g>
    </g>
  </g>
</svg>
