<svg xmlns="http://www.w3.org/2000/svg" width="34" height="34" viewBox="0 0 34 34">
  <g id="Notifications" transform="translate(1203 -5541.5)">
    <circle id="Oval" cx="17" cy="17" r="17" transform="translate(-1203 5541.5)" fill="#ee0cc4"/>
    <g id="_22_Icons_Filled_Discover_Copy_4" data-name="22) Icons/Filled/Discover Copy 4" transform="translate(-1198 5546.5)">
      <path id="Shape" d="M7.13,16,7,16l-.129,0a3.023,3.023,0,0,1-2.986-2.931V12.8H1.27A1.274,1.274,0,0,1,.1,11.989a1.336,1.336,0,0,1,.268-1.424l1.4-1.447V5.382A5.461,5.461,0,0,1,3.56,1.335,5.136,5.136,0,0,1,7.7.046a5.309,5.309,0,0,1,3.269,1.881,5.578,5.578,0,0,1,1.263,3.623V9.118l1.4,1.447a1.336,1.336,0,0,1,.269,1.424,1.274,1.274,0,0,1-1.172.808H10.114v.272A3.022,3.022,0,0,1,7.13,16ZM7,14.4H7c.035,0,.07,0,.1,0a1.478,1.478,0,0,0,1.453-1.332V12.8H5.443v.272A1.477,1.477,0,0,0,6.9,14.4C6.93,14.4,6.966,14.4,7,14.4ZM7.026,1.567a3.572,3.572,0,0,0-2.44.968A3.825,3.825,0,0,0,3.326,5.382V9.118a1.635,1.635,0,0,1-.46,1.136l-.919.944H12.053l-.926-.944a1.633,1.633,0,0,1-.452-1.136v-3.6A3.955,3.955,0,0,0,9.8,2.948,3.762,3.762,0,0,0,7.5,1.6,3.548,3.548,0,0,0,7.026,1.567Z" transform="translate(5 4)" fill="#fff"/>
    </g>
  </g>
</svg>
