<svg xmlns="http://www.w3.org/2000/svg" width="34" height="34" viewBox="0 0 34 34">
  <g id="Settings" transform="translate(1203 -5659.5)">
    <g id="Group_235" data-name="Group 235">
      <circle id="Oval" cx="17" cy="17" r="17" transform="translate(-1203 5659.5)" fill="#ee0cc4"/>
      <g id="_22_Icons_Filled_Discover_Copy_5" data-name="22) Icons/Filled/Discover Copy 5" transform="translate(-1198 5664.5)">
        <path id="Shape" d="M5.86,16h0a7.959,7.959,0,0,1-3.467-2.08,2.557,2.557,0,0,0,.066-2.6A2.393,2.393,0,0,0,.379,10.074c-.042,0-.085,0-.127,0a8.676,8.676,0,0,1,0-4.155c.038,0,.08,0,.125,0A2.392,2.392,0,0,0,2.457,4.68a2.557,2.557,0,0,0-.065-2.6A7.95,7.95,0,0,1,5.86,0,2.38,2.38,0,0,0,8,1.361,2.379,2.379,0,0,0,10.139,0a7.948,7.948,0,0,1,3.469,2.079,2.558,2.558,0,0,0-.066,2.6,2.391,2.391,0,0,0,2.076,1.244c.043,0,.086,0,.129,0a8.664,8.664,0,0,1,0,4.156c-.039,0-.081,0-.127,0a2.393,2.393,0,0,0-2.078,1.245,2.556,2.556,0,0,0,.065,2.6A7.949,7.949,0,0,1,10.139,16,2.362,2.362,0,0,0,5.86,16ZM8,12.981a3.914,3.914,0,0,1,2.672,1.057,6.447,6.447,0,0,0,1.038-.623,4.272,4.272,0,0,1,.451-2.925,4.023,4.023,0,0,1,2.217-1.868,7.044,7.044,0,0,0,0-1.246A4.024,4.024,0,0,1,12.156,5.51a4.27,4.27,0,0,1-.451-2.925,6.387,6.387,0,0,0-1.038-.623A3.909,3.909,0,0,1,8,3.02H8A3.9,3.9,0,0,1,5.333,1.962a6.263,6.263,0,0,0-1.038.622A4.272,4.272,0,0,1,3.843,5.51,4.019,4.019,0,0,1,1.627,7.377a7.043,7.043,0,0,0,0,1.246A4.019,4.019,0,0,1,3.844,10.49a4.29,4.29,0,0,1,.451,2.925,6.371,6.371,0,0,0,1.038.623A3.906,3.906,0,0,1,8,12.981Zm0-2.49A2.449,2.449,0,0,1,5.6,8,2.449,2.449,0,0,1,8,5.51,2.449,2.449,0,0,1,10.4,8,2.449,2.449,0,0,1,8,10.49ZM8,7.17A.83.83,0,1,0,8.8,8,.816.816,0,0,0,8,7.17Z" transform="translate(4 4)" fill="#fff"/>
      </g>
    </g>
  </g>
</svg>
