<svg xmlns="http://www.w3.org/2000/svg" width="34" height="34" viewBox="0 0 34 34">
  <g id="Terms_of_services" data-name="Terms of services" transform="translate(1203 -5718.5)">
    <g id="Group_236" data-name="Group 236">
      <circle id="Oval" cx="17" cy="17" r="17" transform="translate(-1203 5718.5)" fill="#ee0cc4"/>
      <g id="_22_Icons_Filled_Discover_Copy_5" data-name="22) Icons/Filled/Discover Copy 5" transform="translate(-1198 5723.5)">
        <path id="bag" d="M14.4,14H1.6A1.543,1.543,0,0,1,0,12.526V4.421A1.542,1.542,0,0,1,1.6,2.948H4V1.473A1.542,1.542,0,0,1,5.6,0h4.8A1.542,1.542,0,0,1,12,1.473V2.948h2.4A1.542,1.542,0,0,1,16,4.421v8.105A1.543,1.543,0,0,1,14.4,14ZM1.6,11.053v1.473H14.4V11.053Zm0-6.632V8.843H14.4V4.421H12V5.9H10.4V4.421H5.6V5.9H4V4.421Zm4-2.947V2.948h4.8V1.473Z" transform="translate(4 5)" fill="#fff"/>
      </g>
    </g>
  </g>
</svg>
