<svg id="Layer_1" data-name="Layer 1" xmlns="http://www.w3.org/2000/svg" viewBox="0 0 254.47 83.95"><defs><style>.cls-1{fill:#fff;}</style></defs><path class="cls-1" d="M84.84,36.39h7.94V68H84.84V64.68a15.59,15.59,0,0,1-4.66,3.19,13,13,0,0,1-5.07,1A14.08,14.08,0,0,1,64.5,64.09,16.6,16.6,0,0,1,60,52.26a17,17,0,0,1,4.33-12,13.78,13.78,0,0,1,10.51-4.68,13.36,13.36,0,0,1,5.35,1.08,14.52,14.52,0,0,1,4.62,3.23ZM76.49,42.9a8.06,8.06,0,0,0-6.12,2.6,9.4,9.4,0,0,0-2.43,6.68,9.47,9.47,0,0,0,2.48,6.74,8,8,0,0,0,6.1,2.65,8.19,8.19,0,0,0,6.2-2.6,9.54,9.54,0,0,0,2.47-6.82,9.27,9.27,0,0,0-2.47-6.69A8.26,8.26,0,0,0,76.49,42.9Z"/><path class="cls-1" d="M99.93,24.17h7.94V68H99.93Z"/><path class="cls-1" d="M129.94,35.57a16.77,16.77,0,0,1,8.42,2.24,16.43,16.43,0,0,1,8.36,14.37,16.64,16.64,0,0,1-2.22,8.37,16.14,16.14,0,0,1-6.06,6.1A16.79,16.79,0,0,1,130,68.84,15.79,15.79,0,0,1,118.35,64a16.1,16.1,0,0,1-4.81-11.77,16.6,16.6,0,0,1,16.4-16.66Zm.13,7.47a8.17,8.17,0,0,0-6.16,2.58,9.13,9.13,0,0,0-2.46,6.59,9.33,9.33,0,0,0,2.43,6.69,8.74,8.74,0,0,0,12.37,0,9.26,9.26,0,0,0,2.48-6.66,9.15,9.15,0,0,0-2.44-6.62A8.21,8.21,0,0,0,130.07,43Z"/><path class="cls-1" d="M153.21,36.39h7.94v3.24A18.93,18.93,0,0,1,166,36.46a11.9,11.9,0,0,1,4.49-.89,10.85,10.85,0,0,1,8,3.29q2.76,2.79,2.76,8.26V68h-7.85V54.17a34.85,34.85,0,0,0-.51-7.52,5,5,0,0,0-1.77-2.83,4.94,4.94,0,0,0-3.11-1,5.87,5.87,0,0,0-4.14,1.61,8.63,8.63,0,0,0-2.39,4.46,35.17,35.17,0,0,0-.35,6.42V68h-7.94Z"/><path class="cls-1" d="M212.3,36.39h7.94V68H212.3V64.68a15.47,15.47,0,0,1-4.66,3.19,13,13,0,0,1-5.07,1A14.08,14.08,0,0,1,192,64.09a16.6,16.6,0,0,1-4.47-11.83,17,17,0,0,1,4.33-12,13.78,13.78,0,0,1,10.51-4.68,13.36,13.36,0,0,1,5.35,1.08,14.37,14.37,0,0,1,4.61,3.23ZM204,42.9a8,8,0,0,0-6.12,2.6,9.4,9.4,0,0,0-2.43,6.68,9.43,9.43,0,0,0,2.48,6.74,8,8,0,0,0,6.1,2.65,8.19,8.19,0,0,0,6.2-2.6,9.53,9.53,0,0,0,2.46-6.82,9.26,9.26,0,0,0-2.46-6.69A8.26,8.26,0,0,0,204,42.9Z"/><path class="cls-1" d="M229.23,24.72h7.94V36.39h4.71v6.83h-4.71V68h-7.94V43.22h-4.07V36.39h4.07Z"/><path class="cls-1" d="M154.44,19.05a1.34,1.34,0,0,0,1-.42,1.37,1.37,0,0,0,.4-1,1.39,1.39,0,0,0-.4-1,1.39,1.39,0,0,0-2,0,1.4,1.4,0,0,0-.41,1,1.38,1.38,0,0,0,.41,1A1.35,1.35,0,0,0,154.44,19.05Z"/><path class="cls-1" d="M158,19.05a1.33,1.33,0,0,0,1-.42,1.38,1.38,0,0,0,.41-1,1.4,1.4,0,0,0-.41-1,1.33,1.33,0,0,0-1-.42,1.35,1.35,0,0,0-1,.42,1.37,1.37,0,0,0-.42,1,1.44,1.44,0,0,0,1.4,1.4Z"/><path class="cls-1" d="M162.66,20.85a1.29,1.29,0,0,0-.79.23,1,1,0,0,0-.32.85v4.8a3.91,3.91,0,0,1-.23,1.35,2.66,2.66,0,0,1-.71,1.11,1.75,1.75,0,0,1-1.25.44h-5.78a2.18,2.18,0,0,1-1.31-.37,2.49,2.49,0,0,1-.8-.93,5,5,0,0,1-.42-1.18,7.34,7.34,0,0,1-.16-1.12c0-.34,0-.58,0-.73a12.17,12.17,0,0,1,.12-1.57,7,7,0,0,1,.57-1.9A5.1,5.1,0,0,1,153,20a1.48,1.48,0,0,0-.3-.23,2.24,2.24,0,0,0-.44-.18,1.89,1.89,0,0,0-.56-.08,2,2,0,0,0-1.44.57,4,4,0,0,0-.93,1.46,9.72,9.72,0,0,0-.49,1.91,12.79,12.79,0,0,0-.15,1.87A6.77,6.77,0,0,0,150,29.77a4.43,4.43,0,0,0,3.62,1.59h5.78a4.22,4.22,0,0,0,3.84-2.26,4.83,4.83,0,0,0,.57-2.37v-4.8a1,1,0,0,0-.32-.85A1.27,1.27,0,0,0,162.66,20.85Z"/><path class="cls-1" d="M176.76,17.94a1.35,1.35,0,0,0,1-.42,1.33,1.33,0,0,0,.42-1,1.38,1.38,0,0,0-.42-1,1.35,1.35,0,0,0-1-.42,1.43,1.43,0,0,0-1.45,1.43,1.33,1.33,0,0,0,.42,1A1.4,1.4,0,0,0,176.76,17.94Z"/><path class="cls-1" d="M179.05,21.57a4,4,0,0,0-.92-1.46,2,2,0,0,0-1.44-.57,2,2,0,0,0-.57.08,2.41,2.41,0,0,0-.43.18,1.48,1.48,0,0,0-.3.23,5,5,0,0,1,1.41,1.8,7.38,7.38,0,0,1,.56,1.9,12.17,12.17,0,0,1,.12,1.57c0,.15,0,.39,0,.73a6.28,6.28,0,0,1-.16,1.12,5.5,5.5,0,0,1-.41,1.18,2.49,2.49,0,0,1-.8.93,2.18,2.18,0,0,1-1.31.37h-2.41a1.75,1.75,0,0,1-1.23-.44,2.6,2.6,0,0,1-.73-1.11,4.16,4.16,0,0,1-.23-1.35V17.84a3.75,3.75,0,0,0-.3-1.67,1.79,1.79,0,0,0-.74-.83,2,2,0,0,0-.91-.23,2.44,2.44,0,0,0-.71.1,2.41,2.41,0,0,0-.58.25,1.06,1.06,0,0,0-.33.27,2.5,2.5,0,0,1,.61.61,3.5,3.5,0,0,1,.53,1,4.24,4.24,0,0,1,.21,1.37v8a4.83,4.83,0,0,0,.57,2.37,4.25,4.25,0,0,0,3.84,2.26h2.41a4.43,4.43,0,0,0,3.62-1.59,6.77,6.77,0,0,0,1.3-4.42,14.24,14.24,0,0,0-.14-1.87A9.08,9.08,0,0,0,179.05,21.57Z"/><path class="cls-1" d="M198.27,15.34a2.13,2.13,0,0,0-.93-.23,2.32,2.32,0,0,0-.7.1,2.51,2.51,0,0,0-.57.25,1.19,1.19,0,0,0-.33.27,2.52,2.52,0,0,1,.62.61,3.75,3.75,0,0,1,.53,1,4.24,4.24,0,0,1,.21,1.37v8a3.92,3.92,0,0,1-.24,1.35,2.56,2.56,0,0,1-.71,1.11,1.74,1.74,0,0,1-1.24.44h-2.22V22.27a2.28,2.28,0,0,0-1.18-2,5.63,5.63,0,0,0-3-.76,5.42,5.42,0,0,0-4.05,1.55,6,6,0,0,0-1.52,4.33,7.39,7.39,0,0,0,.64,3.2,4.75,4.75,0,0,0,1.78,2,4.84,4.84,0,0,0,2.58.7h2.59a12.24,12.24,0,0,1-.13,1.54,6.35,6.35,0,0,1-.55,1.83,5.3,5.3,0,0,1-1.42,1.77l.31.22a1.71,1.71,0,0,0,.43.2,2,2,0,0,0,.57.07,2,2,0,0,0,1.44-.54,3.93,3.93,0,0,0,.92-1.4,8.38,8.38,0,0,0,.49-1.85,12.2,12.2,0,0,0,.15-1.84h2.22a4.24,4.24,0,0,0,2.29-.61,4.32,4.32,0,0,0,1.55-1.65,4.94,4.94,0,0,0,.56-2.37V17.84a3.91,3.91,0,0,0-.29-1.67A1.86,1.86,0,0,0,198.27,15.34Zm-9.64,14.29A3.23,3.23,0,0,1,186,28.55a4.71,4.71,0,0,1-.91-3.13,4.84,4.84,0,0,1,.86-3.11,3,3,0,0,1,2.49-1,3.17,3.17,0,0,1,1.54.28.81.81,0,0,1,.48.73v7.36Z"/><path class="cls-1" d="M224.2,21.26a6.57,6.57,0,0,0-4.83-1.72,7.28,7.28,0,0,0-3,.52,5.59,5.59,0,0,0-1.95,1.36,7.19,7.19,0,0,0-1.2,1.84,3.69,3.69,0,0,0-.17.42V23.6a4.2,4.2,0,0,0-.2-1.4,2.26,2.26,0,0,0-.5-.84,2.16,2.16,0,0,0-.66-.42,1.94,1.94,0,0,0-.64-.12,1.9,1.9,0,0,0-.86.19,2.68,2.68,0,0,0-.59.35,3.86,3.86,0,0,1,.82,1,2.39,2.39,0,0,1,.41,1.33v6h-3a1.75,1.75,0,0,1-1.23-.44,2.49,2.49,0,0,1-.72-1.11,3.92,3.92,0,0,1-.24-1.35V17.84a3.91,3.91,0,0,0-.29-1.67,1.9,1.9,0,0,0-.74-.83,2,2,0,0,0-.91-.23,2.46,2.46,0,0,0-.72.1,2.17,2.17,0,0,0-.57.25,1.12,1.12,0,0,0-.34.27,2.7,2.7,0,0,1,.62.61,3.75,3.75,0,0,1,.53,1,4.24,4.24,0,0,1,.21,1.37v8a4.83,4.83,0,0,0,.56,2.37,4.28,4.28,0,0,0,3.84,2.26h13.61A4,4,0,0,0,224.78,30a5.84,5.84,0,0,0,1.14-3.85A6.6,6.6,0,0,0,224.2,21.26Zm-1.09,7.56a1.86,1.86,0,0,1-1.6.81H213.1V27.42c.19-.64.44-1.32.72-2a9.21,9.21,0,0,1,1.12-2,5.34,5.34,0,0,1,1.77-1.52,5.45,5.45,0,0,1,2.66-.6,4.35,4.35,0,0,1,3.17,1.14,5,5,0,0,1,1.17,3.74A4.59,4.59,0,0,1,223.11,28.82Z"/><path class="cls-1" d="M46.29,17.38h1V6.14H43.9a.65.65,0,0,1-.36-.1C41.88,5,16.71.89,19.94,24.56c0,0,1.51-6.88,5.27-9.67A11.2,11.2,0,0,1,37,8.05C45.82,9,46.29,17.38,46.29,17.38Z"/><path class="cls-1" d="M24.92,16.16S21.79,22.41,34.21,31,62.68,52.06,53.06,68a42.41,42.41,0,0,1-6,7.35s9.87-12.54,2.9-22A63.86,63.86,0,0,0,36,39.9S13.69,27,24.92,16.16Z"/><path class="cls-1" d="M19.94,24.9s-2.78,4.93,2.55,14.83a1.61,1.61,0,0,1-2.09.52,2.41,2.41,0,0,0,2.44.46,6.86,6.86,0,0,1-.15,5.53c-1.36,3.16,1,2.67,1,2.67s2-.64,2,.92.35,2.06.67,2.09,1.79-.26,1.39.84.58,1,.9,1,.87.72.75,1.68.35,5.88,4.34,3.59a44.72,44.72,0,0,0,6.66-4.63S46,50.67,47,59,41.08,74.18,37.34,75,25.76,78,18.06,69.4c-6.93-7.68-1.47-18.91.81-22.23a1,1,0,0,0-.25-1.42h0S8.11,56.4,14.84,69s21.94,9.47,21.94,9.47S45.42,77.14,48.91,69a15.49,15.49,0,0,0-.42-14,30.67,30.67,0,0,0-7.38-8C32.74,40.47,21.26,34.92,19.94,24.9Z"/></svg>