<?xml version="1.0" encoding="utf-8"?>
<!-- Generator: Adobe Illustrator 26.0.1, SVG Export Plug-In . SVG Version: 6.00 Build 0)  -->
<svg version="1.1" id="Layer_1" xmlns="http://www.w3.org/2000/svg" xmlns:xlink="http://www.w3.org/1999/xlink" x="0px" y="0px"
	 viewBox="0 0 141.73 141.73" style="enable-background:new 0 0 141.73 141.73;" xml:space="preserve">
<style type="text/css">
	.st0{fill:#EE0CC4;}
	.st1{fill:#FFFFFF;}
</style>
<path class="st0" d="M123.09,66.16c0,2.23,0,4.45,0,6.68c-0.12,0.5-0.31,0.99-0.37,1.49c-0.59,5.61-2.29,10.9-5.31,15.64
	c-11.33,17.78-28.13,24.66-48.54,23.53c-5.05-0.28-9.57-0.11-14.31,1.95c-7.39,3.22-15.12,5.64-23.28,6.11
	c-2.71,0.16-5.45,0.14-8.32-1.49c0.8-0.99,1.38-1.91,2.16-2.61c1.6-1.44,3.32-2.73,4.96-4.12c3.26-2.76,6.08-5.84,7.66-9.92
	c0.53-1.36,0.35-2.21-0.8-3.23c-17.76-15.72-19-42.26-2.22-59.19c15.34-15.48,34.18-19.13,54.73-13.21
	c15.23,4.39,26.26,14,31.57,29.33C122.05,60.02,122.43,63.14,123.09,66.16z M57.8,64.68c0.71-0.23,1.25-0.46,1.81-0.59
	c4.41-1.02,6.67,0.39,5.72,5.48c-0.42,2.25-1.2,4.42-1.71,6.66c-0.8,3.52-1.85,7.04-2.17,10.61c-0.39,4.47,2.06,7,6.41,7.87
	c3.79,0.75,7.11-0.66,10.57-1.74c1.85-0.58,2.56-1.64,2.74-3.52c-0.59,0.16-1.01,0.38-1.42,0.36c-1.85-0.08-4.05,0.32-5.42-0.56
	c-0.83-0.53-0.4-3.07-0.51-4.7c-0.01-0.21,0.14-0.42,0.19-0.63c1.17-4.58,2.65-9.11,3.44-13.76c1.35-7.96-2.27-11.87-11.01-10.79
	c-1.96,0.24-3.85,1.02-5.78,1.49C58.81,61.31,57.73,62.37,57.8,64.68z M74.91,52.88c3.97,0.01,6.95-2.8,6.93-6.54
	c-0.02-3.65-2.94-6.42-6.8-6.45c-3.92-0.04-7.05,2.79-7.09,6.43C67.9,49.94,71.01,52.87,74.91,52.88z"/>
<path class="st1" d="M57.8,64.68c-0.07-2.3,1-3.36,2.87-3.82c1.93-0.48,3.82-1.25,5.78-1.49c8.74-1.08,12.36,2.83,11.01,10.79
	c-0.79,4.65-2.27,9.18-3.44,13.76c-0.05,0.21-0.2,0.43-0.19,0.63c0.11,1.64-0.33,4.17,0.51,4.7c1.37,0.88,3.57,0.48,5.42,0.56
	c0.41,0.02,0.82-0.2,1.42-0.36c-0.18,1.88-0.89,2.94-2.74,3.52c-3.46,1.09-6.78,2.5-10.57,1.74c-4.35-0.87-6.8-3.4-6.41-7.87
	c0.31-3.57,1.37-7.09,2.17-10.61c0.51-2.23,1.29-4.41,1.71-6.66c0.95-5.09-1.31-6.5-5.72-5.48C59.06,64.22,58.52,64.44,57.8,64.68z"
	/>
<path class="st1" d="M74.91,52.88c-3.89-0.01-7-2.95-6.96-6.57c0.05-3.63,3.17-6.47,7.09-6.43c3.86,0.04,6.78,2.81,6.8,6.45
	C81.86,50.08,78.88,52.9,74.91,52.88z"/>
</svg>
