<?xml version="1.0" encoding="utf-8"?>
<!-- Generator: Adobe Illustrator 26.0.1, SVG Export Plug-In . SVG Version: 6.00 Build 0)  -->
<svg version="1.1" id="Layer_1" xmlns="http://www.w3.org/2000/svg" xmlns:xlink="http://www.w3.org/1999/xlink" x="0px" y="0px"
	 viewBox="0 0 141.73 141.73" style="enable-background:new 0 0 141.73 141.73;" xml:space="preserve">
<style type="text/css">
	.st0{fill:#EE0CC4;}
	.st1{fill:#FFFFFF;}
</style>
<g>
	<path class="st0" d="M49.76,57.63c0.16-2.63,0.23-5.12,0.47-7.59C51.34,38.22,61.9,29.84,73.64,31.4
		c9.46,1.26,16.12,7.09,18.15,16.08c0.45,1.97,0.49,4.05,0.63,6.08c0.09,1.3,0.02,2.61,0.02,4.12c0.93,0,1.78-0.04,2.62,0.01
		c5.69,0.3,10.11,4.88,10.13,10.6c0.04,10.51,0.04,21.02,0,31.53c-0.02,5.96-4.74,10.68-10.69,10.69
		c-15.74,0.03-31.47,0.02-47.21-0.01c-6.16-0.01-10.77-4.66-10.79-10.82c-0.02-10.3-0.01-20.61,0-30.91
		c0.01-6.48,4.38-10.94,10.86-11.13C48.15,57.61,48.91,57.63,49.76,57.63z M70.9,63.35c-7.81,0-15.62-0.01-23.43,0.01
		c-3.17,0.01-5.27,2.03-5.28,5.19c-0.03,10.35-0.01,20.7-0.01,31.04c0,1.8,0.63,3.4,2.21,4.25c1.1,0.59,2.46,0.95,3.71,0.95
		c15.17,0.07,30.33,0.05,45.5,0.05c3.89,0,5.94-2.09,5.94-6.02c-0.01-9.9-0.01-19.8-0.02-29.69c0-3.86-1.93-5.79-5.81-5.79
		C86.11,63.34,78.5,63.35,70.9,63.35z M86.76,57.48c0-1.74,0.06-3.41-0.01-5.08C86.21,39.36,74.02,34,64.47,38.39
		c-8.02,3.68-9.31,11.13-8.71,19.09C66.03,57.48,76.31,57.48,86.76,57.48z"/>
	<path class="st0" d="M67.98,88.2c0-0.65-0.04-1.31,0.01-1.96c0.11-1.57-0.1-2.86-1.38-4.14c-1.99-1.98-1.5-5.62,0.67-7.45
		c2.24-1.9,5.65-1.68,7.63,0.48c1.95,2.14,1.92,5.57-0.21,7.51c-0.75,0.69-1,1.36-0.97,2.32c0.06,2.24,0.08,4.49,0,6.74
		c-0.08,2.41-2.12,3.72-4.13,2.74c-0.91-0.44-1.49-1.14-1.5-2.19c-0.01-1.35,0-2.69,0-4.04C68.06,88.2,68.02,88.2,67.98,88.2z"/>
</g>
</svg>
