<?xml version="1.0" encoding="utf-8"?>
<!-- Generator: Adobe Illustrator 26.0.1, SVG Export Plug-In . SVG Version: 6.00 Build 0)  -->
<svg version="1.1" id="Layer_1" xmlns="http://www.w3.org/2000/svg" xmlns:xlink="http://www.w3.org/1999/xlink" x="0px" y="0px"
	 viewBox="0 0 141.73 141.73" style="enable-background:new 0 0 141.73 141.73;" xml:space="preserve">
<style type="text/css">
	.st0{fill:#EE0CC4;}
	.st1{fill:#FFFFFF;}
</style>
<g>
	<path class="st0" d="M42.71,33.13c0-1.11,0-2.12,0-3.13c0.01-4.01,2.96-7.01,6.98-7.04c2.19-0.02,4.37-0.01,6.56,0
		c0.36,0,0.55-0.08,0.66-0.45c0.95-3.2,3.11-5.39,6.07-6.71c5.46-2.43,10.93-2.36,16.26,0.43c2.58,1.35,4.4,3.43,5.27,6.27
		c0.11,0.37,0.29,0.47,0.65,0.47c2.04-0.01,4.08-0.01,6.12-0.01c4.29,0.01,7.23,2.95,7.23,7.23c0,0.95,0,1.89,0,2.94
		c0.3,0,0.55,0,0.81,0c3.61,0.02,7.22-0.08,10.82,0.07c5.29,0.23,9.79,4.86,10.04,10.14c0.02,0.41,0.04,0.82,0.04,1.24
		c0,24.38-0.01,48.76,0.01,73.14c0,3.75-1.35,6.83-4.3,9.16c-1.78,1.4-3.83,2.16-6.1,2.26c-0.35,0.01-0.7,0.03-1.05,0.03
		c-25.3,0-50.61,0-75.91,0.01c-4.37,0-7.71-1.81-9.97-5.55c-1.07-1.77-1.46-3.74-1.46-5.8c0.01-9.57,0-19.14,0-28.71
		c0-14.89-0.02-29.78,0.01-44.68c0.01-4.79,2.22-8.26,6.54-10.35c1.49-0.72,3.1-0.96,4.75-0.95c3.05,0.01,6.1,0,9.16,0
		C42.15,33.13,42.39,33.13,42.71,33.13z M42.66,38.67c-0.21-0.01-0.41-0.03-0.61-0.03c-3.13,0-6.27-0.01-9.4,0
		c-3.32,0.01-5.66,2.33-5.66,5.64c0,24.59,0,49.17,0,73.76c0,3.29,2.37,5.63,5.67,5.63c25.47,0,50.94,0,76.4,0
		c3.32,0,5.68-2.36,5.68-5.7c0-24.54,0-49.09,0-73.63c0-3.34-2.34-5.69-5.67-5.7c-3.3-0.01-6.6,0-9.9,0c-0.2,0-0.4,0.02-0.64,0.03
		c0,0.36,0,0.66,0,0.97c0,4.25-2.94,7.19-7.2,7.19c-4.95,0-9.9,0-14.85,0c-8.97,0-17.94,0.01-26.91-0.01
		c-3.4-0.01-6.21-2.4-6.74-5.74C42.7,40.31,42.71,39.51,42.66,38.67z M70.61,41.35c6.82,0,13.65,0,20.47,0
		c0.21,0,0.41,0.01,0.62-0.01c0.72-0.07,1.21-0.55,1.29-1.27c0.02-0.16,0.02-0.33,0.02-0.49c-0.06-1.11-0.16-2.21-0.18-3.32
		c-0.01-0.65,0.16-1.3,0.17-1.96c0.03-1.36,0.01-2.72,0.01-4.08c0-1.29-0.47-1.75-1.75-1.75c-2.95,0-5.9,0.01-8.84,0
		c-1.68-0.01-2.89-1.09-2.92-2.71c-0.05-2.37-1.26-3.94-3.25-5.01c-1.42-0.77-2.96-1.12-4.56-1.23c-2.35-0.16-4.61,0.18-6.69,1.33
		c-1.83,1.01-2.97,2.53-3.07,4.68c-0.09,1.91-1.15,2.94-3.07,2.94c-2.97,0-5.94,0-8.91,0c-1.27,0-1.74,0.48-1.74,1.76
		c0,3.09,0,6.19,0,9.28c0,1.35,0.48,1.83,1.82,1.83C56.88,41.35,63.75,41.35,70.61,41.35z"/>
	<path class="st0" d="M87.36,60.56c5.42,0,10.84-0.01,16.27,0c1.91,0,3.2,1.54,2.83,3.35c-0.22,1.08-1.12,1.94-2.24,2.11
		c-0.28,0.04-0.57,0.05-0.86,0.05c-10.7,0-21.4,0-32.1,0.01c-0.9,0-1.72-0.18-2.37-0.85c-0.77-0.8-1-1.97-0.56-2.98
		c0.5-1.14,1.42-1.69,2.64-1.69c4.31-0.01,8.62,0,12.93,0C85.05,60.56,86.2,60.56,87.36,60.56z"/>
	<path class="st0" d="M87.26,88.03c-5.42,0-10.84,0-16.26,0c-1.51,0-2.6-0.9-2.85-2.31c-0.27-1.5,0.82-2.98,2.34-3.15
		c0.18-0.02,0.37-0.03,0.56-0.03c10.84,0,21.69,0,32.53,0c1.51,0,2.61,0.83,2.88,2.12c0.38,1.79-0.88,3.36-2.74,3.37
		c-2.91,0.02-5.81,0.01-8.72,0.01C92.41,88.03,89.83,88.03,87.26,88.03z"/>
	<path class="st0" d="M87.29,109.96c-5.44,0-10.88,0-16.33,0c-1.49,0-2.55-0.87-2.82-2.26c-0.3-1.57,0.89-3.11,2.48-3.21
		c0.06,0,0.12,0,0.19,0c10.99,0,21.97,0,32.96,0c1.75,0,2.99,1.52,2.69,3.25c-0.23,1.31-1.32,2.22-2.72,2.22
		c-2.99,0.01-5.98,0-8.97,0C92.28,109.96,89.79,109.96,87.29,109.96z"/>
	<path class="st0" d="M44.21,64.83c1.41-1.42,2.81-2.85,4.22-4.26c1.53-1.53,3.06-3.06,4.59-4.59c1.23-1.23,2.87-1.29,4.02-0.17
		c1.15,1.13,1.09,2.82-0.15,4.07c-3.55,3.56-7.11,7.12-10.67,10.67c-1.29,1.28-2.87,1.29-4.16,0.01c-1.79-1.77-3.57-3.55-5.33-5.34
		c-1.17-1.19-1.19-2.88-0.09-3.98c1.11-1.11,2.79-1.07,3.98,0.1c1.13,1.12,2.25,2.24,3.37,3.36C44.02,64.74,44.06,64.75,44.21,64.83
		z"/>
	<path class="st0" d="M44.24,87.69c1.03-1.04,2.09-2.13,3.16-3.21c1.92-1.93,3.84-3.86,5.77-5.77c0.9-0.89,2.11-1.06,3.19-0.52
		c1.07,0.54,1.69,1.68,1.44,2.88c-0.11,0.54-0.39,1.12-0.77,1.5c-3.63,3.69-7.29,7.34-10.96,10.99c-1.1,1.1-2.75,1.1-3.89-0.02
		c-1.89-1.84-3.76-3.71-5.59-5.6c-1.07-1.1-1-2.78,0.08-3.84c1.07-1.05,2.74-1.06,3.84,0.01c1.2,1.16,2.37,2.35,3.56,3.52
		C44.08,87.65,44.1,87.65,44.24,87.69z"/>
	<path class="st0" d="M44.16,110.62c1.86-1.87,3.68-3.7,5.5-5.52c1.12-1.12,2.24-2.25,3.37-3.37c1.23-1.22,2.89-1.28,4.02-0.16
		c1.13,1.11,1.09,2.82-0.12,4.02c-3.58,3.59-7.17,7.18-10.76,10.76c-1.19,1.19-2.82,1.23-4.03,0.05c-1.87-1.83-3.72-3.68-5.55-5.56
		c-1.05-1.07-1.02-2.75,0.01-3.8c1.06-1.08,2.72-1.15,3.84-0.09c1.09,1.03,2.13,2.12,3.2,3.18
		C43.79,110.28,43.94,110.42,44.16,110.62z"/>
</g>
</svg>
